<svg xmlns="http://www.w3.org/2000/svg" viewBox="0 0 640 420"><rect width="640" height="420" fill="#a7dcff"/><path d="M0 276q170-48 320 0t320 0v144H0z" fill="#4f8f66"/><path d="M0 332q160 35 320 0t320 0v88H0z" fill="#4db2c5"/><g fill="none" stroke="#1f2937" stroke-width="12" stroke-linecap="round"><path d="M130 140q35-40 70 0 35-40 70 0M320 92q35-40 70 0 35-40 70 0M430 180q30-34 60 0 30-34 60 0"/></g><g fill="#86a84c"><path d="M40 420q15-130 45 0M90 420q20-160 40 0M540 420q20-150 42 0M590 420q12-110 30 0"/></g><text x="32" y="50" fill="#14532d" font-family="Arial" font-size="22" font-weight="700">WETLAND / FLIGHT</text></svg>

